<svg width="156" height="52" viewBox="0 0 156 52" fill="none" xmlns="http://www.w3.org/2000/svg">
<path d="M127 51C142.35 51 155 39.9146 155 26C155 12.0854 142.35 1 127 1C111.65 1 99 12.0854 99 26C99 39.9146 111.65 51 127 51Z" stroke="#ED1C24" stroke-width="2"/>
<path d="M128.354 26.3536C128.549 26.1583 128.549 25.8417 128.354 25.6464L125.172 22.4645C124.976 22.2692 124.66 22.2692 124.464 22.4645C124.269 22.6597 124.269 22.9763 124.464 23.1716L127.293 26L124.464 28.8284C124.269 29.0237 124.269 29.3403 124.464 29.5355C124.66 29.7308 124.976 29.7308 125.172 29.5355L128.354 26.3536ZM0 26.5L128 26.5L128 25.5L0 25.5L0 26.5Z" fill="#ED1C24"/>
</svg>
